<?xml version="1.0" encoding="UTF-8" ?>
<!DOCTYPE svg PUBLIC "-//W3C//DTD SVG 1.1//EN" "http://www.w3.org/Graphics/SVG/1.1/DTD/svg11.dtd">
<svg width="1000pt" height="1000pt" viewBox="0 0 1000 1000" version="1.1" xmlns="http://www.w3.org/2000/svg">
<g id="#fff">
<path fill="#fff" opacity="1.00" d=" M 467.01 64.05 C 466.89 61.72 469.33 62.22 470.90 62.07 C 485.60 62.11 500.31 62.00 515.01 62.10 C 521.85 61.86 528.69 62.94 535.52 62.47 L 535.56 63.49 C 538.02 63.65 540.72 63.04 542.99 64.31 C 550.12 64.68 557.09 66.48 564.23 66.66 C 569.08 68.20 574.22 68.57 579.17 69.79 C 581.06 70.37 583.04 70.60 585.02 70.85 C 587.96 71.85 591.13 71.98 594.05 73.09 C 599.03 74.17 603.92 75.64 608.91 76.74 C 613.42 77.79 617.62 79.88 622.16 80.83 C 627.49 82.40 632.67 84.42 637.96 86.11 C 638.95 86.43 639.94 86.77 640.93 87.14 C 643.28 88.15 645.76 88.86 648.02 90.10 C 654.19 91.92 659.93 94.88 665.88 97.29 C 677.25 102.19 688.14 108.07 699.18 113.64 C 705.20 117.00 711.15 120.50 716.96 124.22 C 718.66 125.14 720.30 126.17 721.94 127.21 C 786.81 168.45 840.27 227.42 874.71 296.18 C 875.93 298.40 876.94 300.73 878.21 302.93 C 880.28 307.71 882.54 312.41 884.73 317.15 C 885.75 319.80 886.81 322.44 888.14 324.96 C 893.31 337.78 897.88 350.84 902.10 364.00 C 905.94 376.87 909.23 389.90 912.18 402.98 C 912.45 404.64 912.69 406.31 912.95 407.99 C 913.81 411.29 914.22 414.69 914.82 418.06 C 916.04 422.93 916.38 427.95 917.29 432.87 C 917.86 438.26 918.72 443.60 918.75 449.04 C 920.05 453.15 919.60 457.64 919.81 461.92 C 920.40 463.16 920.94 464.45 920.91 465.86 C 920.81 480.88 921.13 495.90 920.82 510.92 C 920.70 513.97 921.61 517.35 919.87 520.10 C 919.46 524.71 920.14 529.52 918.75 533.97 C 918.22 537.27 919.02 540.74 917.83 543.93 C 917.69 546.29 917.65 548.71 916.86 550.97 C 915.39 565.11 912.06 579.02 909.22 592.94 C 908.73 594.25 908.39 595.61 908.11 597.00 C 907.30 599.68 906.74 602.42 905.85 605.08 C 904.66 609.41 903.47 613.75 902.20 618.06 C 900.92 621.63 900.03 625.33 898.65 628.87 C 898.54 629.41 898.33 630.47 898.22 631.01 C 897.34 632.95 896.63 634.97 895.75 636.91 C 895.63 637.44 895.38 638.50 895.25 639.03 C 894.85 640.03 894.48 641.05 894.13 642.08 C 893.40 644.04 892.63 645.98 891.76 647.87 C 891.43 648.85 891.12 649.84 890.82 650.84 C 889.97 652.96 888.98 655.01 888.26 657.18 C 887.11 659.43 886.09 661.74 885.26 664.13 C 883.86 667.09 882.54 670.09 881.25 673.10 C 878.20 679.42 875.30 685.81 871.79 691.90 C 863.00 709.43 852.46 726.10 841.21 742.18 C 829.28 758.40 816.85 774.35 802.64 788.65 C 798.93 793.28 794.74 797.52 790.17 801.31 C 766.52 824.84 739.55 844.88 711.05 862.16 C 705.09 865.58 699.07 868.87 693.04 872.16 C 690.34 873.39 687.87 875.06 685.17 876.29 C 683.01 877.00 681.00 878.06 679.10 879.28 C 676.66 880.33 674.27 881.49 671.92 882.73 C 669.96 883.57 667.98 884.36 666.03 885.20 C 663.26 886.26 660.70 887.77 657.92 888.79 C 656.90 889.12 655.88 889.46 654.87 889.82 C 646.87 893.47 638.50 896.26 630.20 899.18 C 629.11 899.47 628.03 899.79 627.00 900.21 C 625.99 900.51 624.99 900.82 624.00 901.13 C 619.66 902.35 615.47 904.07 611.08 905.12 C 607.60 905.62 604.44 907.34 600.96 907.79 C 599.32 908.20 597.71 908.65 596.14 909.23 C 591.65 909.69 587.36 911.18 582.97 912.13 C 578.59 913.19 574.10 913.72 569.71 914.71 C 564.77 915.41 559.92 916.62 554.93 916.87 C 550.30 917.91 545.55 918.42 540.81 918.63 C 537.12 919.47 533.34 919.60 529.57 919.48 L 529.59 920.54 C 510.05 921.16 490.46 920.85 470.91 920.93 C 469.71 921.01 468.69 920.65 467.84 919.85 C 463.56 919.79 459.28 919.57 455.01 919.28 C 452.51 917.97 449.59 918.72 446.90 918.41 C 441.25 917.68 435.66 916.52 429.97 916.30 C 424.48 914.56 418.55 914.19 412.87 913.14 C 411.56 912.77 410.23 912.46 408.91 912.15 C 399.53 910.00 390.09 908.06 380.90 905.16 C 375.23 903.59 369.53 902.06 364.04 899.90 C 357.54 898.05 351.25 895.55 344.88 893.30 C 343.88 892.88 342.89 892.47 341.89 892.08 C 340.01 891.18 338.08 890.42 336.11 889.79 C 333.31 888.74 330.64 887.38 327.85 886.34 C 325.38 884.88 322.52 884.26 320.12 882.70 C 235.23 844.19 164.28 776.43 120.80 694.07 C 118.76 689.21 115.61 684.91 113.75 679.98 C 112.91 677.93 111.94 675.94 110.83 674.03 C 108.42 668.75 106.01 663.47 103.77 658.12 C 102.57 654.74 100.97 651.53 99.73 648.17 C 97.95 642.77 95.83 637.49 93.81 632.18 C 91.43 623.74 88.46 615.46 86.17 606.99 C 83.99 598.68 81.58 590.40 80.27 581.90 C 79.67 580.00 79.24 578.06 78.78 576.14 C 78.22 573.06 77.58 570.01 77.15 566.92 C 76.62 564.69 76.42 562.40 75.75 560.21 C 75.48 553.06 73.42 546.13 73.31 538.97 C 71.98 536.73 72.68 534.01 72.51 531.56 L 71.46 531.53 C 71.96 525.69 71.10 519.85 71.08 514.02 C 71.13 494.79 70.80 475.56 71.48 456.35 L 72.30 456.48 C 72.20 452.65 72.47 448.83 72.69 445.02 C 73.70 443.93 73.34 442.38 73.53 441.07 C 73.87 434.94 75.36 428.94 75.71 422.82 C 76.49 420.64 76.48 418.29 77.15 416.09 C 79.28 402.30 82.73 388.78 86.19 375.29 C 88.75 367.97 90.26 360.30 93.26 353.15 C 101.08 328.51 111.86 304.82 124.28 282.16 C 140.34 252.72 160.22 225.47 182.54 200.49 C 188.38 195.00 193.04 188.42 199.08 183.12 C 205.31 178.40 210.07 172.06 216.33 167.37 C 236.95 149.15 259.32 132.92 283.04 119.00 C 290.32 115.03 297.34 110.54 304.97 107.22 C 309.68 104.87 314.19 102.10 319.14 100.26 C 321.60 98.81 324.44 98.18 326.89 96.72 C 329.23 95.75 331.69 95.03 333.86 93.70 C 335.96 92.93 338.04 92.11 340.11 91.26 C 341.07 90.86 342.03 90.46 343.00 90.07 C 343.98 89.74 344.97 89.43 345.97 89.14 C 346.92 88.70 347.88 88.25 348.84 87.80 C 351.53 86.78 354.23 85.77 356.99 84.95 C 361.98 83.32 366.85 81.35 372.00 80.20 C 373.98 79.37 376.01 78.62 378.14 78.27 C 381.74 77.03 385.39 75.87 389.15 75.19 C 395.12 73.84 400.93 71.83 406.99 70.91 C 408.71 70.62 410.46 70.41 412.11 69.79 C 417.04 68.85 422.07 68.17 426.86 66.69 C 434.33 66.69 441.55 64.38 449.03 64.38 C 453.19 62.67 458.03 63.57 462.47 63.30 L 462.31 62.41 C 464.13 62.51 467.02 61.20 467.01 64.05 M 522.01 157.12 C 516.62 157.62 511.26 158.57 506.05 160.07 C 498.42 161.85 491.02 164.55 483.88 167.76 C 482.24 168.52 480.63 169.31 479.04 170.15 C 450.85 184.07 427.88 208.26 415.17 237.00 C 412.35 243.18 409.79 249.53 408.19 256.15 C 407.68 257.74 407.28 259.37 406.92 261.00 C 406.58 262.32 406.23 263.63 405.87 264.95 C 405.32 269.26 404.42 273.52 403.79 277.83 C 403.70 282.26 402.93 286.63 402.73 291.05 C 402.77 315.58 402.70 340.11 402.77 364.63 C 370.04 364.66 337.31 364.61 304.58 364.66 C 304.50 403.94 304.64 443.22 304.57 482.50 C 337.28 482.55 369.99 482.52 402.70 482.51 C 402.78 603.17 402.74 723.82 402.72 844.47 C 453.64 844.67 504.57 844.32 555.49 844.65 C 556.36 842.87 556.72 840.80 555.70 839.01 C 555.82 836.99 556.90 834.85 555.61 833.01 C 556.96 829.46 556.11 825.46 556.15 821.74 L 555.07 821.00 C 557.54 820.02 555.55 816.98 555.79 815.07 C 555.27 812.75 557.42 809.86 555.37 807.99 C 556.33 806.85 556.61 805.50 556.20 803.95 C 555.23 801.38 556.18 798.65 556.23 796.01 C 555.46 793.70 556.15 791.33 556.27 789.00 C 556.51 785.64 555.76 782.32 555.77 778.98 C 556.76 775.42 556.05 771.69 556.29 768.06 C 556.12 766.38 556.80 764.33 555.47 763.01 C 557.24 759.36 555.86 754.93 556.19 750.97 C 555.52 749.02 555.52 746.96 556.20 745.03 C 556.73 734.02 554.77 722.99 556.19 712.01 C 555.05 707.35 556.78 702.67 556.17 697.98 C 555.37 695.03 555.67 691.96 556.17 689.00 C 555.34 686.35 556.46 683.69 556.03 681.04 C 555.66 678.71 555.45 676.30 556.19 674.03 C 556.27 672.34 556.25 670.65 556.15 668.98 C 555.51 662.62 556.71 656.23 556.17 649.86 C 556.02 647.91 555.56 645.92 556.13 644.00 C 555.86 641.45 557.49 637.67 555.09 636.01 C 557.88 633.63 555.37 629.21 555.75 625.99 C 556.55 618.68 556.30 611.25 555.88 603.98 C 555.97 598.97 555.62 593.97 556.25 588.96 C 555.45 586.71 555.56 584.31 556.18 582.04 C 555.90 579.05 556.19 576.05 556.31 573.07 C 556.02 571.41 557.11 568.83 555.10 568.00 L 556.14 567.25 C 556.58 559.16 555.88 551.05 556.27 542.95 C 556.69 534.30 554.82 525.63 556.20 517.02 C 555.73 514.03 555.54 511.01 555.86 508.00 C 556.78 505.37 555.21 502.64 556.15 500.02 C 556.53 497.10 555.69 494.19 556.12 491.28 C 556.60 488.33 555.29 485.32 556.46 482.46 C 592.46 482.62 628.47 482.46 664.47 482.54 C 664.52 443.24 664.53 403.93 664.47 364.63 C 628.39 364.65 592.31 364.64 556.24 364.63 C 556.28 360.74 556.23 356.86 556.30 352.97 C 556.04 351.34 556.99 349.02 555.26 348.00 L 556.11 347.19 C 556.80 336.50 555.32 325.74 556.83 315.07 C 557.79 312.46 558.25 309.70 559.25 307.11 C 564.08 294.14 574.32 283.49 586.83 277.69 C 589.57 276.70 592.28 275.62 595.11 274.86 C 596.73 274.57 598.36 274.25 599.97 273.81 C 605.61 273.14 611.29 273.37 616.96 273.35 C 632.79 273.34 648.63 273.34 664.46 273.35 C 664.55 234.09 664.48 194.83 664.50 155.57 C 623.01 155.59 581.52 155.58 540.02 155.58 C 533.99 155.38 527.92 155.91 522.01 157.12 Z" />
</g>
</svg>
