<?xml version="1.0" encoding="UTF-8" ?>
<!DOCTYPE svg PUBLIC "-//W3C//DTD SVG 1.1//EN" "http://www.w3.org/Graphics/SVG/1.1/DTD/svg11.dtd">
<svg width="512pt" height="512pt" viewBox="0 0 512 512" version="1.1" xmlns="http://www.w3.org/2000/svg">
<g id="#000000ff">
<path fill="#000000" opacity="1.00" d=" M 251.85 0.00 L 259.96 0.00 C 294.55 0.70 329.06 8.12 360.60 22.42 C 417.17 47.68 463.89 94.22 489.27 150.74 C 503.75 182.40 511.26 217.09 512.00 251.86 L 512.00 259.94 C 511.23 302.71 499.82 345.31 478.47 382.42 C 459.87 415.11 433.96 443.61 403.20 465.25 C 361.67 494.79 311.10 511.13 260.17 512.00 L 252.04 512.00 C 205.37 511.19 158.94 497.57 119.55 472.45 C 91.09 454.47 66.21 430.84 46.83 403.31 C 17.23 361.75 0.87 311.13 0.00 260.15 L 0.00 252.04 C 0.66 221.04 6.60 190.09 18.22 161.30 C 42.26 100.58 90.56 49.97 150.04 23.04 C 181.89 8.36 216.83 0.74 251.85 0.00 M 164.41 110.51 C 148.00 111.04 132.13 119.33 122.18 132.36 C 114.33 142.41 110.20 155.19 110.41 167.93 C 110.42 227.28 110.36 286.64 110.44 345.99 C 110.43 368.15 124.95 389.32 145.54 397.45 C 152.93 400.53 160.98 401.71 168.95 401.63 C 227.64 401.61 286.33 401.65 345.03 401.60 C 358.94 401.66 372.79 396.40 383.06 386.99 C 394.82 376.45 401.70 360.79 401.57 345.01 C 401.60 285.63 401.61 226.26 401.57 166.89 C 401.68 150.65 394.32 134.58 381.95 124.06 C 371.55 115.00 357.75 110.18 343.99 110.41 C 284.13 110.47 224.27 110.27 164.41 110.51 Z" />
<path fill="#000000" opacity="1.00" d=" M 318.54 144.10 C 334.99 144.03 351.44 144.01 367.90 143.95 C 367.92 160.40 367.91 176.85 367.90 193.31 C 351.51 193.37 335.12 193.42 318.73 193.46 C 318.65 177.01 318.59 160.55 318.54 144.10 Z" />
<path fill="#000000" opacity="1.00" d=" M 247.39 205.54 C 260.87 203.15 275.22 206.58 286.21 214.73 C 298.34 223.59 306.28 238.02 307.04 253.04 C 308.65 272.78 296.93 292.60 279.32 301.39 C 268.43 307.49 255.12 308.63 243.12 305.57 C 225.79 301.02 211.45 286.88 206.63 269.64 C 202.70 255.51 205.31 239.72 213.56 227.59 C 221.16 216.01 233.72 207.83 247.39 205.54 Z" />
<path fill="#000000" opacity="1.00" d=" M 138.75 226.13 C 153.24 226.12 167.72 226.11 182.21 226.13 C 175.97 241.83 174.65 259.48 178.96 275.85 C 184.00 295.84 197.27 313.55 214.95 324.13 C 230.40 333.62 249.19 337.32 267.12 334.79 C 285.28 332.33 302.39 323.19 314.71 309.65 C 327.38 295.92 334.95 277.58 335.50 258.89 C 336.01 247.70 333.80 236.53 329.76 226.13 C 344.25 226.11 358.73 226.12 373.21 226.13 C 373.23 262.42 373.22 298.70 373.22 334.99 C 373.15 342.25 373.88 349.90 370.70 356.67 C 366.41 366.66 355.82 373.32 344.99 373.18 C 286.00 373.26 227.00 373.21 168.01 373.21 C 160.50 373.36 152.88 370.74 147.46 365.46 C 141.60 359.99 138.62 351.92 138.76 343.98 C 138.74 304.70 138.75 265.41 138.75 226.13 Z" />
</g>
</svg>
