<?xml version="1.0" encoding="UTF-8" ?>
<!DOCTYPE svg PUBLIC "-//W3C//DTD SVG 1.1//EN" "http://www.w3.org/Graphics/SVG/1.1/DTD/svg11.dtd">
<svg width="1226pt" height="566pt" viewBox="0 0 1226 566" version="1.1" xmlns="http://www.w3.org/2000/svg">
<g id="#000000ff">
<path fill="#000000" opacity="1.00" d=" M 0.00 0.00 L 1226.00 0.00 L 1226.00 566.00 L 0.00 566.00 L 0.00 0.00 M 1011.57 90.69 C 982.22 94.58 955.18 113.03 940.95 139.01 C 932.98 153.29 928.67 169.65 929.02 186.03 C 928.70 206.92 936.05 227.66 948.72 244.19 C 960.25 259.22 976.45 270.51 994.43 276.44 C 1007.99 281.04 1022.58 281.87 1036.75 280.37 C 1065.35 276.82 1091.83 259.43 1106.39 234.55 C 1122.18 208.83 1124.37 175.39 1112.09 147.83 C 1102.71 126.14 1085.12 108.19 1063.57 98.44 C 1047.47 90.78 1029.17 88.57 1011.57 90.69 M 776.45 106.34 C 761.46 113.95 749.02 126.42 741.52 141.47 C 732.58 159.36 729.67 179.93 731.66 199.73 C 733.85 219.50 743.73 238.21 758.58 251.40 C 786.23 275.83 828.72 282.32 862.18 266.55 C 861.92 275.82 863.49 285.95 858.25 294.21 C 852.43 303.95 840.94 308.51 830.07 309.42 C 818.60 311.02 806.35 308.17 797.32 300.76 C 791.37 295.97 787.06 288.81 787.18 281.00 C 770.18 281.00 753.18 280.99 736.18 281.01 C 736.52 301.88 746.95 321.86 762.40 335.62 C 772.22 344.31 784.00 350.82 796.55 354.58 C 809.02 358.34 822.18 358.41 835.06 357.66 C 853.31 356.10 871.61 350.47 886.29 339.25 C 899.86 328.98 909.43 313.72 913.05 297.11 C 915.03 288.88 915.17 280.38 915.14 271.96 C 915.13 215.70 915.16 159.43 915.13 103.17 C 897.34 103.16 879.55 103.16 861.76 103.17 C 861.76 103.75 861.76 104.91 861.76 105.49 C 850.08 99.68 836.88 97.83 824.00 97.08 C 807.73 96.26 790.97 98.63 776.45 106.34 M 524.67 104.00 C 524.72 115.66 524.73 127.32 524.87 138.99 C 525.06 144.00 524.07 149.00 524.80 154.00 C 525.91 172.05 532.14 190.15 544.26 203.79 C 556.37 217.64 573.98 225.74 591.94 228.61 C 602.55 230.47 613.37 230.01 624.09 229.89 C 647.17 229.03 670.92 219.94 685.65 201.56 C 697.89 186.63 703.21 167.10 703.51 148.03 C 703.56 133.36 703.50 118.69 703.54 104.01 C 685.73 103.99 667.93 104.00 650.12 104.00 C 650.11 116.66 650.14 129.32 650.11 141.98 C 649.67 151.67 648.55 162.30 641.92 169.93 C 634.87 177.51 623.95 179.45 614.06 179.80 C 604.33 179.49 593.68 177.55 586.60 170.31 C 579.85 162.98 578.46 152.56 577.93 143.02 C 577.80 130.01 577.91 117.01 577.88 104.00 C 560.14 104.00 542.41 104.00 524.67 104.00 M 114.47 109.00 C 114.51 134.99 114.66 160.98 114.75 186.98 C 114.64 194.57 115.24 202.19 114.54 209.77 C 114.67 228.24 119.71 247.13 131.08 261.94 C 140.96 275.09 155.72 283.96 171.44 288.31 C 185.90 292.47 201.09 292.40 215.99 291.80 C 234.02 290.68 252.17 284.86 266.16 273.17 C 280.12 261.69 288.79 244.67 291.86 227.02 C 294.12 215.14 293.43 203.00 293.53 190.98 C 293.53 163.66 293.52 136.33 293.54 109.01 C 275.73 108.99 257.93 109.00 240.12 109.00 C 240.10 141.00 240.17 172.99 240.08 204.99 C 239.55 214.57 238.28 225.11 231.44 232.45 C 224.31 239.62 213.69 241.45 204.00 241.80 C 194.08 241.46 183.13 239.45 176.13 231.79 C 169.16 223.63 168.12 212.32 167.88 202.02 C 167.87 171.01 167.88 140.01 167.88 109.00 C 150.08 109.00 132.27 109.00 114.47 109.00 M 376.66 117.66 C 376.68 115.44 376.69 113.22 376.70 111.00 C 358.88 111.00 341.07 111.00 323.26 111.00 C 323.26 193.00 323.26 275.00 323.26 356.99 C 341.07 357.00 358.88 357.00 376.70 357.00 C 376.68 333.92 376.69 310.84 376.69 287.76 C 395.33 291.25 415.00 291.03 433.08 284.90 C 452.69 278.70 470.32 265.79 481.10 248.15 C 501.11 215.66 498.59 171.31 476.34 140.56 C 465.38 125.38 448.73 114.43 430.33 110.78 C 412.29 106.57 393.33 110.15 376.66 117.66 M 605.54 119.51 C 594.67 123.48 587.78 135.68 589.95 147.04 C 591.74 158.44 602.39 167.77 614.00 167.58 C 623.73 168.08 633.18 161.86 637.12 153.04 C 642.32 142.30 638.13 128.17 628.02 121.91 C 621.51 117.49 612.84 117.17 605.54 119.51 M 565.11 252.16 C 553.38 258.13 543.38 267.40 536.62 278.69 C 528.72 291.69 525.13 306.90 524.56 322.00 C 525.28 333.98 524.65 346.00 524.75 358.00 C 542.50 358.00 560.24 358.00 577.99 358.00 C 578.16 346.96 577.60 335.90 578.47 324.88 C 579.11 316.47 581.11 307.48 587.26 301.30 C 594.28 294.40 604.59 292.55 614.07 292.22 C 623.77 292.48 634.42 294.29 641.59 301.41 C 647.95 307.88 649.60 317.35 650.26 326.05 C 650.58 336.69 650.33 347.34 650.41 357.99 C 668.26 358.02 686.11 357.99 703.97 358.00 C 703.95 346.99 703.97 335.99 703.96 324.98 C 704.06 310.89 701.21 296.67 694.91 284.03 C 688.25 270.46 677.16 259.15 663.72 252.24 C 648.81 244.34 631.69 241.54 614.95 242.00 C 597.87 241.47 580.37 244.19 565.11 252.16 M 355.94 403.07 C 359.01 406.07 364.47 405.43 367.23 402.29 C 368.52 400.81 368.93 398.83 369.63 397.06 C 369.35 393.31 365.90 390.57 362.18 391.24 C 356.58 391.48 353.01 398.31 355.94 403.07 M 512.98 399.99 C 512.91 404.97 519.48 406.14 522.98 404.02 C 525.77 402.77 526.78 399.72 527.64 397.04 C 526.99 395.31 526.77 393.10 524.89 392.23 C 519.67 388.89 511.90 393.76 512.98 399.99 M 632.94 403.04 C 635.82 405.94 640.93 405.48 643.78 402.75 C 645.41 401.26 645.86 399.01 646.64 397.05 C 646.33 393.28 642.86 390.55 639.13 391.25 C 633.57 391.51 630.00 398.31 632.94 403.04 M 465.94 442.99 C 470.15 443.01 474.36 443.00 478.57 443.00 C 479.75 436.70 480.85 430.38 482.03 424.09 C 482.66 420.90 485.65 417.92 489.10 418.64 C 491.29 419.05 492.27 421.62 491.80 423.61 C 490.69 430.08 489.55 436.54 488.29 442.98 C 492.51 443.01 496.73 442.99 500.96 443.01 C 502.37 435.35 503.92 427.69 504.97 419.98 C 505.91 414.43 502.03 408.02 496.03 408.03 C 491.14 407.27 487.04 410.29 483.77 413.51 C 485.06 406.68 486.10 399.81 487.40 392.99 C 483.13 393.01 478.86 393.00 474.60 393.00 C 471.81 409.68 468.75 426.31 465.94 442.99 M 576.61 393.00 C 573.80 409.68 570.75 426.32 567.95 443.00 C 572.15 443.00 576.35 443.00 580.56 443.00 C 581.75 436.69 582.85 430.37 584.03 424.07 C 584.66 420.92 587.61 417.95 591.02 418.64 C 593.25 418.94 594.26 421.58 593.80 423.56 C 592.70 430.05 591.55 436.53 590.30 442.99 C 594.52 443.00 598.73 442.99 602.96 443.01 C 604.35 435.35 605.93 427.70 606.96 419.98 C 607.90 414.44 604.03 408.02 598.03 408.03 C 593.15 407.27 589.04 410.29 585.77 413.51 C 587.06 406.68 588.10 399.81 589.39 392.98 C 585.13 393.01 580.87 393.00 576.61 393.00 M 907.74 408.95 C 906.05 408.97 904.35 408.98 902.68 409.00 C 902.23 411.95 901.63 414.88 901.17 417.83 C 902.61 417.81 904.07 417.80 905.54 417.79 C 904.98 421.89 904.14 425.94 903.40 430.01 C 902.81 433.84 902.75 438.36 905.76 441.26 C 909.90 445.23 916.48 444.33 921.47 442.68 C 921.67 439.81 922.17 436.98 922.76 434.17 C 920.31 434.33 916.44 435.27 915.92 431.87 C 916.36 427.14 917.58 422.52 918.26 417.82 C 920.69 417.82 923.12 417.81 925.56 417.83 C 926.03 414.88 926.62 411.96 927.05 409.01 C 924.62 409.00 922.19 409.00 919.77 409.00 C 920.55 405.41 921.08 401.79 921.85 398.20 C 918.48 398.17 915.11 398.17 911.75 398.19 C 910.47 401.79 908.98 405.32 907.74 408.95 M 201.52 412.55 C 198.06 415.98 196.39 422.40 199.73 426.41 C 204.11 430.62 210.64 429.11 215.95 430.94 C 217.52 431.43 217.58 433.40 216.50 434.42 C 213.62 437.96 206.09 436.90 206.17 431.58 C 202.62 431.57 199.08 431.58 195.54 431.59 C 195.22 434.33 195.26 437.40 197.29 439.53 C 201.12 444.18 207.75 444.19 213.24 443.91 C 219.70 443.59 226.97 440.67 229.44 434.22 C 230.39 430.98 230.66 426.61 227.56 424.43 C 222.36 420.25 215.00 422.52 209.44 419.28 C 210.02 414.02 219.43 413.32 219.80 418.99 C 223.49 419.00 227.19 419.01 230.89 418.98 C 231.42 415.02 229.39 410.97 225.64 409.41 C 217.96 405.91 207.87 406.73 201.52 412.55 M 250.61 408.60 C 238.79 410.58 231.17 424.00 234.83 435.24 C 236.47 440.10 241.29 443.02 246.16 443.73 C 252.16 444.51 258.59 443.90 263.82 440.65 C 270.15 436.79 273.59 429.29 273.64 422.03 C 273.68 417.45 271.46 412.79 267.44 410.43 C 262.41 407.48 256.18 407.57 250.61 408.60 M 286.09 410.25 C 277.69 415.61 274.32 426.86 276.74 436.26 C 278.27 441.45 283.76 444.55 289.02 444.02 C 293.79 444.29 297.73 441.14 300.70 437.76 C 300.34 439.51 299.97 441.26 299.59 443.01 C 303.87 442.99 308.15 443.00 312.43 443.00 C 314.35 431.65 316.45 420.33 318.47 408.99 C 314.20 409.00 309.93 409.00 305.66 409.01 C 305.42 410.79 305.17 412.56 304.89 414.35 C 303.06 412.16 301.54 409.34 298.63 408.49 C 294.44 407.41 289.80 408.00 286.09 410.25 M 336.74 413.85 C 337.05 412.22 337.37 410.61 337.71 409.00 C 333.51 409.00 329.32 409.00 325.12 409.00 C 322.98 420.30 320.98 431.63 318.95 442.96 C 323.18 443.02 327.41 443.00 331.65 443.00 C 333.08 436.55 333.47 429.85 335.52 423.56 C 337.59 418.50 343.99 417.95 348.35 420.23 C 348.79 416.28 349.64 412.40 350.03 408.44 C 344.83 406.76 339.51 409.37 336.74 413.85 M 384.72 414.12 C 385.06 412.42 385.40 410.72 385.74 409.03 C 381.51 408.98 377.28 409.01 373.05 408.99 C 371.00 420.31 368.93 431.63 366.95 442.96 C 371.16 443.03 375.38 442.99 379.60 443.00 C 380.86 436.60 381.82 430.14 383.16 423.76 C 383.89 420.48 387.54 417.86 390.87 419.05 C 392.30 419.68 392.59 421.27 393.07 422.60 C 391.69 429.37 390.65 436.22 389.30 443.00 C 393.52 443.00 397.74 442.98 401.96 443.02 C 403.06 438.38 403.61 433.64 404.55 428.98 C 405.34 424.35 406.70 419.58 405.57 414.89 C 404.51 410.69 400.30 407.65 395.98 407.99 C 391.31 407.61 387.68 410.98 384.72 414.12 M 418.81 409.87 C 410.51 414.61 406.75 425.38 408.73 434.49 C 409.98 439.92 415.50 443.44 420.95 443.02 C 425.27 443.31 429.12 441.03 432.24 438.27 C 431.53 441.52 431.23 445.31 428.39 447.52 C 425.04 450.79 417.96 449.87 417.33 444.61 C 413.25 445.31 409.10 445.53 405.04 446.34 C 404.74 451.77 408.69 456.59 413.86 457.91 C 421.23 459.86 429.73 459.57 436.24 455.24 C 440.95 452.34 443.46 446.90 444.27 441.59 C 446.15 430.72 448.34 419.89 450.07 409.00 C 446.07 409.00 442.06 409.01 438.06 408.99 C 437.69 410.42 437.35 411.87 437.04 413.33 C 433.36 407.06 424.67 406.70 418.81 409.87 M 529.45 417.35 C 526.49 422.90 525.00 429.76 527.20 435.83 C 528.86 440.61 534.02 443.33 538.92 443.01 C 543.26 443.32 547.11 441.02 550.24 438.27 C 549.52 441.52 549.23 445.31 546.39 447.52 C 543.06 450.77 535.94 449.89 535.35 444.62 C 531.25 445.28 527.10 445.54 523.03 446.34 C 522.75 451.76 526.67 456.57 531.82 457.90 C 539.20 459.86 547.73 459.57 554.25 455.23 C 558.97 452.33 561.46 446.87 562.28 441.57 C 564.16 430.70 566.34 419.89 568.07 409.00 C 564.06 408.99 560.05 409.01 556.05 408.98 C 555.69 410.43 555.35 411.89 555.05 413.36 C 553.03 410.36 549.86 407.96 546.10 408.02 C 539.23 407.21 532.62 411.39 529.45 417.35 M 650.57 411.60 C 646.33 414.89 644.13 421.96 647.72 426.42 C 652.12 430.60 658.63 429.12 663.94 430.93 C 665.51 431.42 665.58 433.39 664.50 434.42 C 661.62 437.96 654.09 436.90 654.17 431.58 C 650.62 431.57 647.08 431.58 643.54 431.59 C 643.21 434.33 643.26 437.41 645.29 439.54 C 649.13 444.18 655.76 444.19 661.27 443.91 C 667.71 443.58 674.96 440.66 677.44 434.23 C 678.39 430.98 678.67 426.59 675.54 424.41 C 670.34 420.24 662.97 422.53 657.44 419.26 C 658.05 414.02 667.42 413.31 667.82 418.99 C 671.50 419.00 675.19 419.01 678.89 418.98 C 679.42 415.03 677.39 410.98 673.66 409.42 C 666.37 406.06 657.03 406.71 650.57 411.60 M 714.61 414.22 C 714.95 412.47 715.34 410.75 715.73 409.02 C 711.49 408.98 707.26 409.01 703.04 408.99 C 700.96 420.30 698.97 431.63 696.95 442.95 C 701.15 443.03 705.35 442.99 709.56 443.00 C 710.89 436.43 711.88 429.79 713.27 423.23 C 713.89 420.32 716.97 417.92 719.99 418.74 C 722.14 419.47 722.67 422.06 722.27 424.06 C 721.19 430.38 719.82 436.65 718.91 443.00 C 723.12 442.99 727.33 443.02 731.54 442.97 C 732.76 436.46 733.87 429.92 735.12 423.42 C 735.82 420.16 739.53 417.63 742.78 419.00 C 745.52 420.71 744.54 424.30 744.19 426.92 C 743.10 432.25 742.33 437.65 741.20 442.97 C 745.42 443.02 749.65 442.99 753.88 443.00 C 755.23 436.08 756.42 429.13 757.69 422.20 C 758.36 418.10 758.27 413.12 754.73 410.29 C 748.79 405.60 739.55 408.27 735.62 414.36 C 734.27 409.90 729.51 407.35 725.02 408.05 C 720.71 408.18 717.43 411.32 714.61 414.22 M 832.72 414.12 C 833.05 412.42 833.40 410.72 833.74 409.03 C 829.51 408.98 825.28 409.01 821.05 408.99 C 819.00 420.31 816.93 431.62 814.95 442.96 C 819.16 443.03 823.38 442.99 827.60 443.00 C 828.85 436.62 829.82 430.19 831.14 423.83 C 831.86 419.87 837.16 416.99 840.36 420.13 C 840.52 420.76 840.84 422.02 840.99 422.65 C 839.76 429.43 838.60 436.23 837.30 443.00 C 841.51 443.00 845.74 442.98 849.96 443.02 C 851.06 438.37 851.62 433.62 852.55 428.94 C 853.34 424.32 854.70 419.55 853.57 414.87 C 852.50 410.69 848.30 407.65 843.99 407.99 C 839.31 407.60 835.68 410.98 832.72 414.12 M 863.86 412.85 C 857.94 418.61 855.89 427.63 857.52 435.58 C 858.81 441.09 864.48 444.61 870.00 444.02 C 874.77 444.29 878.74 441.14 881.71 437.74 C 881.34 439.50 880.97 441.25 880.59 443.01 C 884.87 442.99 889.15 443.00 893.43 443.00 C 895.36 431.65 897.44 420.33 899.48 408.99 C 895.20 409.00 890.93 409.00 886.66 409.00 C 886.41 410.78 886.16 412.56 885.89 414.35 C 884.08 412.17 882.55 409.39 879.68 408.50 C 874.13 407.01 867.80 408.62 863.86 412.85 M 983.75 413.85 C 984.04 412.23 984.36 410.61 984.70 409.01 C 980.50 408.99 976.31 409.00 972.13 408.99 C 969.98 420.30 967.98 431.64 965.95 442.96 C 970.18 443.02 974.41 442.99 978.65 443.00 C 979.72 437.39 980.59 431.73 981.68 426.12 C 982.21 423.15 984.12 420.23 987.14 419.35 C 989.85 418.12 992.68 419.54 995.38 420.04 C 995.81 416.15 996.64 412.32 997.03 408.43 C 991.83 406.78 986.51 409.36 983.75 413.85 M 998.38 420.13 C 994.90 427.19 995.59 437.53 1003.08 441.72 C 1012.78 446.54 1027.20 443.91 1032.23 433.57 C 1028.73 432.70 1025.18 432.07 1021.68 431.23 C 1019.83 434.04 1016.46 436.24 1013.00 435.16 C 1010.24 434.49 1009.34 431.43 1008.84 429.00 C 1017.25 429.00 1025.67 428.99 1034.09 429.00 C 1035.22 423.90 1035.95 417.88 1032.47 413.50 C 1029.14 409.06 1023.22 407.74 1017.96 408.04 C 1009.91 408.14 1001.81 412.70 998.38 420.13 M 353.92 408.99 C 351.87 420.31 349.88 431.65 347.94 442.99 C 352.14 443.00 356.33 443.01 360.52 442.99 C 362.54 431.66 364.44 420.30 366.56 408.99 C 362.35 409.00 358.13 409.00 353.92 408.99 M 511.92 408.99 C 509.87 420.32 507.88 431.65 505.94 442.99 C 510.14 443.01 514.33 443.01 518.53 442.98 C 520.54 431.65 522.44 420.30 524.56 409.00 C 520.34 409.00 516.13 409.00 511.92 408.99 M 630.92 408.99 C 628.87 420.32 626.88 431.65 624.95 442.99 C 629.13 443.00 633.33 443.01 637.52 442.98 C 639.54 431.66 641.44 420.30 643.56 409.00 C 639.34 409.00 635.13 409.00 630.92 408.99 M 761.03 409.12 C 764.81 420.35 768.24 431.69 771.84 442.97 C 769.38 447.92 763.42 448.99 758.64 447.03 C 758.35 450.35 757.69 453.61 757.18 456.90 C 762.24 458.27 768.14 458.90 772.82 456.04 C 777.55 453.02 780.52 448.06 783.15 443.24 C 789.46 431.84 795.80 420.45 802.05 409.02 C 797.69 408.99 793.34 408.99 788.99 409.01 C 785.83 415.34 782.57 421.63 779.31 427.91 C 777.82 421.60 776.28 415.31 774.78 409.02 C 770.19 409.02 765.61 408.89 761.03 409.12 M 932.04 408.98 C 930.65 415.15 929.87 421.43 928.62 427.62 C 928.01 430.90 927.59 434.36 928.58 437.62 C 929.81 441.55 933.84 444.30 937.96 444.01 C 942.65 444.42 946.30 441.04 949.27 437.88 C 948.92 439.57 948.58 441.27 948.26 442.98 C 952.47 443.01 956.69 442.99 960.91 443.00 C 963.03 431.69 965.05 420.37 967.05 409.04 C 962.83 408.97 958.61 409.00 954.39 409.00 C 953.20 415.29 952.16 421.61 950.99 427.90 C 950.31 431.95 945.36 435.01 941.75 432.32 C 941.46 431.01 940.85 429.70 941.22 428.35 C 942.30 421.89 943.49 415.44 944.70 409.00 C 940.47 408.99 936.25 409.01 932.04 408.98 Z" />
<path fill="#000000" opacity="1.00" d=" M 1013.43 137.93 C 1023.88 136.00 1034.95 137.64 1044.29 142.75 C 1059.98 150.84 1070.19 168.35 1069.62 185.98 C 1069.63 196.27 1065.82 206.38 1059.53 214.47 C 1049.70 227.26 1032.98 234.54 1016.92 232.54 C 994.92 230.45 976.44 210.98 974.90 189.04 C 973.52 173.21 980.66 156.95 993.21 147.21 C 999.12 142.65 1006.06 139.31 1013.43 137.93 Z" />
<path fill="#000000" opacity="1.00" d=" M 814.52 145.95 C 832.90 142.00 853.05 151.58 861.64 168.25 C 862.26 178.82 861.93 189.44 862.15 200.03 C 862.04 201.58 862.46 203.28 861.58 204.68 C 855.39 216.07 843.67 224.20 830.90 226.26 C 820.51 227.72 809.60 226.31 800.07 221.85 C 790.32 217.25 782.50 208.31 780.16 197.69 C 778.26 188.35 779.35 178.36 783.64 169.82 C 789.49 157.64 801.28 148.56 814.52 145.95 Z" />
<path fill="#000000" opacity="1.00" d=" M 381.63 167.61 C 389.59 161.38 400.31 160.73 409.99 161.81 C 421.04 162.93 431.61 169.04 437.49 178.56 C 443.01 187.05 443.26 197.77 441.81 207.48 C 440.00 218.85 432.68 229.23 422.38 234.45 C 413.98 238.94 404.28 239.24 395.01 240.02 C 388.91 240.27 382.80 239.90 376.69 240.00 C 376.69 218.66 376.70 197.32 376.68 175.98 C 376.52 172.52 379.17 169.72 381.63 167.61 Z" />
<path fill="#000000" opacity="1.00" d=" M 1010.10 422.15 C 1011.59 418.81 1015.03 415.88 1018.90 416.76 C 1021.53 417.12 1022.69 419.80 1022.78 422.18 C 1018.55 422.17 1014.32 422.20 1010.10 422.15 Z" />
<path fill="#000000" opacity="1.00" d=" M 252.36 419.05 C 255.19 417.93 259.20 418.59 260.39 421.73 C 263.24 428.21 254.88 436.60 248.58 432.31 C 244.29 428.34 247.45 420.94 252.36 419.05 Z" />
<path fill="#000000" opacity="1.00" d=" M 294.30 419.20 C 297.48 417.46 302.43 419.18 302.68 423.11 C 303.96 429.42 296.34 436.29 290.58 432.06 C 286.74 428.08 289.66 421.15 294.30 419.20 Z" />
<path fill="#000000" opacity="1.00" d=" M 426.25 419.22 C 428.99 417.93 433.17 418.31 434.46 421.45 C 437.53 427.73 429.43 435.85 423.27 431.95 C 418.83 428.41 421.73 421.28 426.25 419.22 Z" />
<path fill="#000000" opacity="1.00" d=" M 544.26 419.21 C 547.01 417.91 551.19 418.33 552.47 421.48 C 555.52 427.77 547.40 435.86 541.25 431.94 C 536.83 428.38 539.74 421.27 544.26 419.21 Z" />
<path fill="#000000" opacity="1.00" d=" M 875.28 419.22 C 877.84 417.94 881.29 418.46 882.97 420.92 C 886.38 427.17 878.97 436.19 872.28 432.52 C 867.40 429.10 870.40 421.15 875.28 419.22 Z" />
</g>
<g id="#ffffffff">
<path fill="#ffffff" opacity="1.00" d=" M 1011.57 90.69 C 1029.17 88.57 1047.47 90.78 1063.57 98.44 C 1085.12 108.19 1102.71 126.14 1112.09 147.83 C 1124.37 175.39 1122.18 208.83 1106.39 234.55 C 1091.83 259.43 1065.35 276.82 1036.75 280.37 C 1022.58 281.87 1007.99 281.04 994.43 276.44 C 976.45 270.51 960.25 259.22 948.72 244.19 C 936.05 227.66 928.70 206.92 929.02 186.03 C 928.67 169.65 932.98 153.29 940.95 139.01 C 955.18 113.03 982.22 94.58 1011.57 90.69 M 1013.43 137.93 C 1006.06 139.31 999.12 142.65 993.21 147.21 C 980.66 156.95 973.52 173.21 974.90 189.04 C 976.44 210.98 994.92 230.45 1016.92 232.54 C 1032.98 234.54 1049.70 227.26 1059.53 214.47 C 1065.82 206.38 1069.63 196.27 1069.62 185.98 C 1070.19 168.35 1059.98 150.84 1044.29 142.75 C 1034.95 137.64 1023.88 136.00 1013.43 137.93 Z" />
<path fill="#ffffff" opacity="1.00" d=" M 776.45 106.34 C 790.97 98.63 807.73 96.26 824.00 97.08 C 836.88 97.83 850.08 99.68 861.76 105.49 C 861.76 104.91 861.76 103.75 861.76 103.17 C 879.55 103.16 897.34 103.16 915.13 103.17 C 915.16 159.43 915.13 215.70 915.14 271.96 C 915.17 280.38 915.03 288.88 913.05 297.11 C 909.43 313.72 899.86 328.98 886.29 339.25 C 871.61 350.47 853.31 356.10 835.06 357.66 C 822.18 358.41 809.02 358.34 796.55 354.58 C 784.00 350.82 772.22 344.31 762.40 335.62 C 746.95 321.86 736.52 301.88 736.18 281.01 C 753.18 280.99 770.18 281.00 787.18 281.00 C 787.06 288.81 791.37 295.97 797.32 300.76 C 806.35 308.17 818.60 311.02 830.07 309.42 C 840.94 308.51 852.43 303.95 858.25 294.21 C 863.49 285.95 861.92 275.82 862.18 266.55 C 828.72 282.32 786.23 275.83 758.58 251.40 C 743.73 238.21 733.85 219.50 731.66 199.73 C 729.67 179.93 732.58 159.36 741.52 141.47 C 749.02 126.42 761.46 113.95 776.45 106.34 M 814.52 145.95 C 801.28 148.56 789.49 157.64 783.64 169.82 C 779.35 178.36 778.26 188.35 780.16 197.69 C 782.50 208.31 790.32 217.25 800.07 221.85 C 809.60 226.31 820.51 227.72 830.90 226.26 C 843.67 224.20 855.39 216.07 861.58 204.68 C 862.46 203.28 862.04 201.58 862.15 200.03 C 861.93 189.44 862.26 178.82 861.64 168.25 C 853.05 151.58 832.90 142.00 814.52 145.95 Z" />
<path fill="#ffffff" opacity="1.00" d=" M 524.67 104.00 C 542.41 104.00 560.14 104.00 577.88 104.00 C 577.91 117.01 577.80 130.01 577.93 143.02 C 578.46 152.56 579.85 162.98 586.60 170.31 C 593.68 177.55 604.33 179.49 614.06 179.80 C 623.95 179.45 634.87 177.51 641.92 169.93 C 648.55 162.30 649.67 151.67 650.11 141.98 C 650.14 129.32 650.11 116.66 650.12 104.00 C 667.93 104.00 685.73 103.99 703.54 104.01 C 703.50 118.69 703.56 133.36 703.51 148.03 C 703.21 167.10 697.89 186.63 685.65 201.56 C 670.92 219.94 647.17 229.03 624.09 229.89 C 613.37 230.01 602.55 230.47 591.94 228.61 C 573.98 225.74 556.37 217.64 544.26 203.79 C 532.14 190.15 525.91 172.05 524.80 154.00 C 524.07 149.00 525.06 144.00 524.87 138.99 C 524.73 127.32 524.72 115.66 524.67 104.00 Z" />
<path fill="#ffffff" opacity="1.00" d=" M 114.47 109.00 C 132.27 109.00 150.08 109.00 167.88 109.00 C 167.88 140.01 167.87 171.01 167.88 202.02 C 168.12 212.32 169.16 223.63 176.13 231.79 C 183.13 239.45 194.08 241.46 204.00 241.80 C 213.69 241.45 224.31 239.62 231.44 232.45 C 238.28 225.11 239.55 214.57 240.08 204.99 C 240.17 172.99 240.10 141.00 240.12 109.00 C 257.93 109.00 275.73 108.99 293.54 109.01 C 293.52 136.33 293.53 163.66 293.53 190.98 C 293.43 203.00 294.12 215.14 291.86 227.02 C 288.79 244.67 280.12 261.69 266.16 273.17 C 252.17 284.86 234.02 290.68 215.99 291.80 C 201.09 292.40 185.90 292.47 171.44 288.31 C 155.72 283.96 140.96 275.09 131.08 261.94 C 119.71 247.13 114.67 228.24 114.54 209.77 C 115.24 202.19 114.64 194.57 114.75 186.98 C 114.66 160.98 114.51 134.99 114.47 109.00 Z" />
<path fill="#ffffff" opacity="1.00" d=" M 376.66 117.66 C 393.33 110.15 412.29 106.57 430.33 110.78 C 448.73 114.43 465.38 125.38 476.34 140.56 C 498.59 171.31 501.11 215.66 481.10 248.15 C 470.32 265.79 452.69 278.70 433.08 284.90 C 415.00 291.03 395.33 291.25 376.69 287.76 C 376.69 310.84 376.68 333.92 376.70 357.00 C 358.88 357.00 341.07 357.00 323.26 356.99 C 323.26 275.00 323.26 193.00 323.26 111.00 C 341.07 111.00 358.88 111.00 376.70 111.00 C 376.69 113.22 376.68 115.44 376.66 117.66 M 381.63 167.61 C 379.17 169.72 376.52 172.52 376.68 175.98 C 376.70 197.32 376.69 218.66 376.69 240.00 C 382.80 239.90 388.91 240.27 395.01 240.02 C 404.28 239.24 413.98 238.94 422.38 234.45 C 432.68 229.23 440.00 218.85 441.81 207.48 C 443.26 197.77 443.01 187.05 437.49 178.56 C 431.61 169.04 421.04 162.93 409.99 161.81 C 400.31 160.73 389.59 161.38 381.63 167.61 Z" />
<path fill="#ffffff" opacity="1.00" d=" M 355.94 403.07 C 353.01 398.31 356.58 391.48 362.18 391.24 C 365.90 390.57 369.35 393.31 369.63 397.06 C 368.93 398.83 368.52 400.81 367.23 402.29 C 364.47 405.43 359.01 406.07 355.94 403.07 Z" />
<path fill="#ffffff" opacity="1.00" d=" M 512.98 399.99 C 511.90 393.76 519.67 388.89 524.89 392.23 C 526.77 393.10 526.99 395.31 527.64 397.04 C 526.78 399.72 525.77 402.77 522.98 404.02 C 519.48 406.14 512.91 404.97 512.98 399.99 Z" />
<path fill="#ffffff" opacity="1.00" d=" M 632.94 403.04 C 630.00 398.31 633.57 391.51 639.13 391.25 C 642.86 390.55 646.33 393.28 646.64 397.05 C 645.86 399.01 645.41 401.26 643.78 402.75 C 640.93 405.48 635.82 405.94 632.94 403.04 Z" />
<path fill="#ffffff" opacity="1.00" d=" M 465.94 442.99 C 468.75 426.31 471.81 409.68 474.60 393.00 C 478.86 393.00 483.13 393.01 487.40 392.99 C 486.10 399.81 485.06 406.68 483.77 413.51 C 487.04 410.29 491.14 407.27 496.03 408.03 C 502.03 408.02 505.91 414.43 504.97 419.98 C 503.92 427.69 502.37 435.35 500.96 443.01 C 496.73 442.99 492.51 443.01 488.29 442.98 C 489.55 436.54 490.69 430.08 491.80 423.61 C 492.27 421.62 491.29 419.05 489.10 418.64 C 485.65 417.92 482.66 420.90 482.03 424.09 C 480.85 430.38 479.75 436.70 478.57 443.00 C 474.36 443.00 470.15 443.01 465.94 442.99 Z" />
<path fill="#ffffff" opacity="1.00" d=" M 576.61 393.00 C 580.87 393.00 585.13 393.01 589.39 392.98 C 588.10 399.81 587.06 406.68 585.77 413.51 C 589.04 410.29 593.15 407.27 598.03 408.03 C 604.03 408.02 607.90 414.44 606.96 419.98 C 605.93 427.70 604.35 435.35 602.96 443.01 C 598.73 442.99 594.52 443.00 590.30 442.99 C 591.55 436.53 592.70 430.05 593.80 423.56 C 594.26 421.58 593.25 418.94 591.02 418.64 C 587.61 417.95 584.66 420.92 584.03 424.07 C 582.85 430.37 581.75 436.69 580.56 443.00 C 576.35 443.00 572.15 443.00 567.95 443.00 C 570.75 426.32 573.80 409.68 576.61 393.00 Z" />
<path fill="#ffffff" opacity="1.00" d=" M 907.74 408.95 C 908.98 405.32 910.47 401.79 911.75 398.19 C 915.11 398.17 918.48 398.17 921.85 398.20 C 921.08 401.79 920.55 405.41 919.77 409.00 C 922.19 409.00 924.62 409.00 927.05 409.01 C 926.62 411.96 926.03 414.88 925.56 417.83 C 923.12 417.81 920.69 417.82 918.26 417.82 C 917.58 422.52 916.36 427.14 915.92 431.87 C 916.44 435.27 920.31 434.33 922.76 434.17 C 922.17 436.98 921.67 439.81 921.47 442.68 C 916.48 444.33 909.90 445.23 905.76 441.26 C 902.75 438.36 902.81 433.84 903.40 430.01 C 904.14 425.94 904.98 421.89 905.54 417.79 C 904.07 417.80 902.61 417.81 901.17 417.83 C 901.63 414.88 902.23 411.95 902.68 409.00 C 904.35 408.98 906.05 408.97 907.74 408.95 Z" />
<path fill="#ffffff" opacity="1.00" d=" M 201.52 412.55 C 207.87 406.73 217.96 405.91 225.64 409.41 C 229.39 410.97 231.42 415.02 230.89 418.98 C 227.19 419.01 223.49 419.00 219.80 418.99 C 219.43 413.32 210.02 414.02 209.44 419.28 C 215.00 422.52 222.36 420.25 227.56 424.43 C 230.66 426.61 230.39 430.98 229.44 434.22 C 226.97 440.67 219.70 443.59 213.24 443.91 C 207.75 444.19 201.12 444.18 197.29 439.53 C 195.26 437.40 195.22 434.33 195.54 431.59 C 199.08 431.58 202.62 431.57 206.17 431.58 C 206.09 436.90 213.62 437.96 216.50 434.42 C 217.58 433.40 217.52 431.43 215.95 430.94 C 210.64 429.11 204.11 430.62 199.73 426.41 C 196.39 422.40 198.06 415.98 201.52 412.55 Z" />
<path fill="#ffffff" opacity="1.00" d=" M 250.61 408.60 C 256.18 407.57 262.41 407.48 267.44 410.43 C 271.46 412.79 273.68 417.45 273.64 422.03 C 273.59 429.29 270.15 436.79 263.82 440.65 C 258.59 443.90 252.16 444.51 246.16 443.73 C 241.29 443.02 236.47 440.10 234.83 435.24 C 231.17 424.00 238.79 410.58 250.61 408.60 M 252.36 419.05 C 247.45 420.94 244.29 428.34 248.58 432.31 C 254.88 436.60 263.24 428.21 260.39 421.73 C 259.20 418.59 255.19 417.93 252.36 419.05 Z" />
<path fill="#ffffff" opacity="1.00" d=" M 286.09 410.25 C 289.80 408.00 294.44 407.41 298.63 408.49 C 301.54 409.34 303.06 412.16 304.89 414.35 C 305.17 412.56 305.42 410.79 305.66 409.01 C 309.93 409.00 314.20 409.00 318.47 408.99 C 316.45 420.33 314.35 431.65 312.43 443.00 C 308.15 443.00 303.87 442.99 299.59 443.01 C 299.97 441.26 300.34 439.51 300.70 437.76 C 297.73 441.14 293.79 444.29 289.02 444.02 C 283.76 444.55 278.27 441.45 276.74 436.26 C 274.32 426.86 277.69 415.61 286.09 410.25 M 294.30 419.20 C 289.66 421.15 286.74 428.08 290.58 432.06 C 296.34 436.29 303.96 429.42 302.68 423.11 C 302.43 419.18 297.48 417.46 294.30 419.20 Z" />
<path fill="#ffffff" opacity="1.00" d=" M 336.74 413.85 C 339.51 409.37 344.83 406.76 350.03 408.44 C 349.64 412.40 348.79 416.28 348.35 420.23 C 343.99 417.95 337.59 418.50 335.52 423.56 C 333.47 429.85 333.08 436.55 331.65 443.00 C 327.41 443.00 323.18 443.02 318.95 442.96 C 320.98 431.63 322.98 420.30 325.12 409.00 C 329.32 409.00 333.51 409.00 337.71 409.00 C 337.37 410.61 337.05 412.22 336.74 413.85 Z" />
<path fill="#ffffff" opacity="1.00" d=" M 384.72 414.12 C 387.68 410.98 391.31 407.61 395.98 407.99 C 400.30 407.65 404.51 410.69 405.57 414.89 C 406.70 419.58 405.34 424.35 404.55 428.98 C 403.61 433.64 403.06 438.38 401.96 443.02 C 397.74 442.98 393.52 443.00 389.30 443.00 C 390.65 436.22 391.69 429.37 393.07 422.60 C 392.59 421.27 392.30 419.68 390.87 419.05 C 387.54 417.86 383.89 420.48 383.16 423.76 C 381.82 430.14 380.86 436.60 379.60 443.00 C 375.38 442.99 371.16 443.03 366.95 442.96 C 368.93 431.63 371.00 420.31 373.05 408.99 C 377.28 409.01 381.51 408.98 385.74 409.03 C 385.40 410.72 385.06 412.42 384.72 414.12 Z" />
<path fill="#ffffff" opacity="1.00" d=" M 418.81 409.87 C 424.67 406.70 433.36 407.06 437.04 413.33 C 437.35 411.87 437.69 410.42 438.06 408.99 C 442.06 409.01 446.07 409.00 450.07 409.00 C 448.34 419.89 446.15 430.72 444.27 441.59 C 443.46 446.90 440.95 452.34 436.24 455.24 C 429.73 459.57 421.23 459.86 413.86 457.91 C 408.69 456.59 404.74 451.77 405.04 446.34 C 409.10 445.53 413.25 445.31 417.33 444.61 C 417.96 449.87 425.04 450.79 428.39 447.52 C 431.23 445.31 431.53 441.52 432.24 438.27 C 429.12 441.03 425.27 443.31 420.95 443.02 C 415.50 443.44 409.98 439.92 408.73 434.49 C 406.75 425.38 410.51 414.61 418.81 409.87 M 426.25 419.22 C 421.73 421.28 418.83 428.41 423.27 431.95 C 429.43 435.85 437.53 427.73 434.46 421.45 C 433.17 418.31 428.99 417.93 426.25 419.22 Z" />
<path fill="#ffffff" opacity="1.00" d=" M 529.45 417.35 C 532.62 411.39 539.23 407.21 546.10 408.02 C 549.86 407.96 553.03 410.36 555.05 413.36 C 555.35 411.89 555.69 410.43 556.05 408.98 C 560.05 409.01 564.06 408.99 568.07 409.00 C 566.34 419.89 564.16 430.70 562.28 441.57 C 561.46 446.87 558.97 452.33 554.25 455.23 C 547.73 459.57 539.20 459.86 531.82 457.90 C 526.67 456.57 522.75 451.76 523.03 446.34 C 527.10 445.54 531.25 445.28 535.35 444.62 C 535.94 449.89 543.06 450.77 546.39 447.52 C 549.23 445.31 549.52 441.52 550.24 438.27 C 547.11 441.02 543.26 443.32 538.92 443.01 C 534.02 443.33 528.86 440.61 527.20 435.83 C 525.00 429.76 526.49 422.90 529.45 417.35 M 544.26 419.21 C 539.74 421.27 536.83 428.38 541.25 431.94 C 547.40 435.86 555.52 427.77 552.47 421.48 C 551.19 418.33 547.01 417.91 544.26 419.21 Z" />
<path fill="#ffffff" opacity="1.00" d=" M 650.57 411.60 C 657.03 406.71 666.37 406.06 673.66 409.42 C 677.39 410.98 679.42 415.03 678.89 418.98 C 675.19 419.01 671.50 419.00 667.82 418.99 C 667.42 413.31 658.05 414.02 657.44 419.26 C 662.97 422.53 670.34 420.24 675.54 424.41 C 678.67 426.59 678.39 430.98 677.44 434.23 C 674.96 440.66 667.71 443.58 661.27 443.91 C 655.76 444.19 649.13 444.18 645.29 439.54 C 643.26 437.41 643.21 434.33 643.54 431.59 C 647.08 431.58 650.62 431.57 654.17 431.58 C 654.09 436.90 661.62 437.96 664.50 434.42 C 665.58 433.39 665.51 431.42 663.94 430.93 C 658.63 429.12 652.12 430.60 647.72 426.42 C 644.13 421.96 646.33 414.89 650.57 411.60 Z" />
<path fill="#ffffff" opacity="1.00" d=" M 714.61 414.22 C 717.43 411.32 720.71 408.18 725.02 408.05 C 729.51 407.35 734.27 409.90 735.62 414.36 C 739.55 408.27 748.79 405.60 754.73 410.29 C 758.27 413.12 758.36 418.10 757.69 422.20 C 756.42 429.13 755.23 436.08 753.88 443.00 C 749.65 442.99 745.42 443.02 741.20 442.97 C 742.33 437.65 743.10 432.25 744.19 426.92 C 744.54 424.30 745.52 420.71 742.78 419.00 C 739.53 417.63 735.82 420.16 735.12 423.42 C 733.87 429.92 732.76 436.46 731.54 442.97 C 727.33 443.02 723.12 442.99 718.91 443.00 C 719.82 436.65 721.19 430.38 722.27 424.06 C 722.67 422.06 722.14 419.47 719.99 418.74 C 716.97 417.92 713.89 420.32 713.27 423.23 C 711.88 429.79 710.89 436.43 709.56 443.00 C 705.35 442.99 701.15 443.03 696.95 442.95 C 698.97 431.63 700.96 420.30 703.04 408.99 C 707.26 409.01 711.49 408.98 715.73 409.02 C 715.34 410.75 714.95 412.47 714.61 414.22 Z" />
<path fill="#ffffff" opacity="1.00" d=" M 832.72 414.12 C 835.68 410.98 839.31 407.60 843.99 407.99 C 848.30 407.65 852.50 410.69 853.57 414.87 C 854.70 419.55 853.34 424.32 852.55 428.94 C 851.62 433.62 851.06 438.37 849.96 443.02 C 845.74 442.98 841.51 443.00 837.30 443.00 C 838.60 436.23 839.76 429.43 840.99 422.65 C 840.84 422.02 840.52 420.76 840.36 420.13 C 837.16 416.99 831.86 419.87 831.14 423.83 C 829.82 430.19 828.85 436.62 827.60 443.00 C 823.38 442.99 819.16 443.03 814.95 442.96 C 816.93 431.62 819.00 420.31 821.05 408.99 C 825.28 409.01 829.51 408.98 833.74 409.03 C 833.40 410.72 833.05 412.42 832.72 414.12 Z" />
<path fill="#ffffff" opacity="1.00" d=" M 863.86 412.85 C 867.80 408.62 874.13 407.01 879.68 408.50 C 882.55 409.39 884.08 412.17 885.89 414.35 C 886.16 412.56 886.41 410.78 886.66 409.00 C 890.93 409.00 895.20 409.00 899.48 408.99 C 897.44 420.33 895.36 431.65 893.43 443.00 C 889.15 443.00 884.87 442.99 880.59 443.01 C 880.97 441.25 881.34 439.50 881.71 437.74 C 878.74 441.14 874.77 444.29 870.00 444.02 C 864.48 444.61 858.81 441.09 857.52 435.58 C 855.89 427.63 857.94 418.61 863.86 412.85 M 875.28 419.22 C 870.40 421.15 867.40 429.10 872.28 432.52 C 878.97 436.19 886.38 427.17 882.97 420.92 C 881.29 418.46 877.84 417.94 875.28 419.22 Z" />
<path fill="#ffffff" opacity="1.00" d=" M 983.75 413.85 C 986.51 409.36 991.83 406.78 997.03 408.43 C 996.64 412.32 995.81 416.15 995.38 420.04 C 992.68 419.54 989.85 418.12 987.14 419.35 C 984.12 420.23 982.21 423.15 981.68 426.12 C 980.59 431.73 979.72 437.39 978.65 443.00 C 974.41 442.99 970.18 443.02 965.95 442.96 C 967.98 431.64 969.98 420.30 972.13 408.99 C 976.31 409.00 980.50 408.99 984.70 409.01 C 984.36 410.61 984.04 412.23 983.75 413.85 Z" />
<path fill="#ffffff" opacity="1.00" d=" M 998.38 420.13 C 1001.81 412.70 1009.91 408.14 1017.96 408.04 C 1023.22 407.74 1029.14 409.06 1032.47 413.50 C 1035.95 417.88 1035.22 423.90 1034.09 429.00 C 1025.67 428.99 1017.25 429.00 1008.84 429.00 C 1009.34 431.43 1010.24 434.49 1013.00 435.16 C 1016.46 436.24 1019.83 434.04 1021.68 431.23 C 1025.18 432.07 1028.73 432.70 1032.23 433.57 C 1027.20 443.91 1012.78 446.54 1003.08 441.72 C 995.59 437.53 994.90 427.19 998.38 420.13 M 1010.10 422.15 C 1014.32 422.20 1018.55 422.17 1022.78 422.18 C 1022.69 419.80 1021.53 417.12 1018.90 416.76 C 1015.03 415.88 1011.59 418.81 1010.10 422.15 Z" />
<path fill="#ffffff" opacity="1.00" d=" M 353.92 408.99 C 358.13 409.00 362.35 409.00 366.56 408.99 C 364.44 420.30 362.54 431.66 360.52 442.99 C 356.33 443.01 352.14 443.00 347.94 442.99 C 349.88 431.65 351.87 420.31 353.92 408.99 Z" />
<path fill="#ffffff" opacity="1.00" d=" M 511.92 408.99 C 516.13 409.00 520.34 409.00 524.56 409.00 C 522.44 420.30 520.54 431.65 518.53 442.98 C 514.33 443.01 510.14 443.01 505.94 442.99 C 507.88 431.65 509.87 420.32 511.92 408.99 Z" />
<path fill="#ffffff" opacity="1.00" d=" M 630.92 408.99 C 635.13 409.00 639.34 409.00 643.56 409.00 C 641.44 420.30 639.54 431.66 637.52 442.98 C 633.33 443.01 629.13 443.00 624.95 442.99 C 626.88 431.65 628.87 420.32 630.92 408.99 Z" />
<path fill="#ffffff" opacity="1.00" d=" M 761.03 409.12 C 765.61 408.89 770.19 409.02 774.78 409.02 C 776.28 415.31 777.82 421.60 779.31 427.91 C 782.57 421.63 785.83 415.34 788.99 409.01 C 793.34 408.99 797.69 408.99 802.05 409.02 C 795.80 420.45 789.46 431.84 783.15 443.24 C 780.52 448.06 777.55 453.02 772.82 456.04 C 768.14 458.90 762.24 458.27 757.18 456.90 C 757.69 453.61 758.35 450.35 758.64 447.03 C 763.42 448.99 769.38 447.92 771.84 442.97 C 768.24 431.69 764.81 420.35 761.03 409.12 Z" />
<path fill="#ffffff" opacity="1.00" d=" M 932.04 408.98 C 936.25 409.01 940.47 408.99 944.70 409.00 C 943.49 415.44 942.30 421.89 941.22 428.35 C 940.85 429.70 941.46 431.01 941.75 432.32 C 945.36 435.01 950.31 431.95 950.99 427.90 C 952.16 421.61 953.20 415.29 954.39 409.00 C 958.61 409.00 962.83 408.97 967.05 409.04 C 965.05 420.37 963.03 431.69 960.91 443.00 C 956.69 442.99 952.47 443.01 948.26 442.98 C 948.58 441.27 948.92 439.57 949.27 437.88 C 946.30 441.04 942.65 444.42 937.96 444.01 C 933.84 444.30 929.81 441.55 928.58 437.62 C 927.59 434.36 928.01 430.90 928.62 427.62 C 929.87 421.43 930.65 415.15 932.04 408.98 Z" />
</g>
<g id="#fe0000ff">
<path fill="#fe0000" opacity="1.00" d=" M 605.54 119.51 C 612.84 117.17 621.51 117.49 628.02 121.91 C 638.13 128.17 642.32 142.30 637.12 153.04 C 633.18 161.86 623.73 168.08 614.00 167.58 C 602.39 167.77 591.74 158.44 589.95 147.04 C 587.78 135.68 594.67 123.48 605.54 119.51 Z" />
<path fill="#fe0000" opacity="1.00" d=" M 565.11 252.16 C 580.37 244.19 597.87 241.47 614.95 242.00 C 631.69 241.54 648.81 244.34 663.72 252.24 C 677.16 259.15 688.25 270.46 694.91 284.03 C 701.21 296.67 704.06 310.89 703.96 324.98 C 703.97 335.99 703.95 346.99 703.97 358.00 C 686.11 357.99 668.26 358.02 650.41 357.99 C 650.33 347.34 650.58 336.69 650.26 326.05 C 649.60 317.35 647.95 307.88 641.59 301.41 C 634.42 294.29 623.77 292.48 614.07 292.22 C 604.59 292.55 594.28 294.40 587.26 301.30 C 581.11 307.48 579.11 316.47 578.47 324.88 C 577.60 335.90 578.16 346.96 577.99 358.00 C 560.24 358.00 542.50 358.00 524.75 358.00 C 524.65 346.00 525.28 333.98 524.56 322.00 C 525.13 306.90 528.72 291.69 536.62 278.69 C 543.38 267.40 553.38 258.13 565.11 252.16 Z" />
</g>
</svg>
